<?xml version="1.0" standalone="no"?>
<!DOCTYPE svg PUBLIC "-//W3C//DTD SVG 20010904//EN"
 "http://www.w3.org/TR/2001/REC-SVG-20010904/DTD/svg10.dtd">
<svg version="1.0" xmlns="http://www.w3.org/2000/svg"
 width="1024.000000pt" height="1024.000000pt" viewBox="0 0 1024.000000 1024.000000"
 preserveAspectRatio="xMidYMid meet">

<g transform="translate(0.000000,1024.000000) scale(0.100000,-0.100000)"
fill="#000000" stroke="none">
<path d="M4964 9019 c-512 -32 -988 -178 -1540 -472 -192 -102 -298 -169 -469
-297 -163 -123 -217 -170 -383 -333 -485 -478 -830 -1037 -983 -1593 -65 -237
-73 -300 -73 -559 0 -261 12 -351 70 -525 113 -337 361 -625 705 -820 194
-110 449 -208 714 -274 158 -40 183 -45 419 -86 92 -16 171 -32 174 -35 3 -3
-2 -34 -11 -68 -119 -430 -187 -717 -212 -886 -22 -149 -16 -515 10 -631 75
-332 210 -575 457 -822 l78 -78 -288 0 c-325 0 -365 -6 -419 -62 -62 -66 -83
-140 -62 -216 17 -60 90 -136 145 -151 27 -8 588 -11 1854 -11 l1815 0 50 24
c83 38 135 114 135 197 0 76 -60 165 -135 200 -36 17 -69 19 -342 19 -167 0
-303 4 -303 8 0 4 13 15 28 24 44 26 192 185 254 273 115 164 191 340 247 565
35 146 40 199 37 405 -3 178 -7 216 -35 350 -36 170 -129 550 -171 700 -16 55
-32 116 -35 136 l-7 37 54 7 c220 28 557 100 748 160 119 38 314 117 420 170
241 121 428 270 581 462 119 149 188 296 246 523 33 126 35 148 40 335 8 281
-19 458 -114 749 -232 713 -757 1405 -1413 1863 -526 368 -1147 623 -1669 688
-30 4 -63 9 -75 11 -24 5 -358 24 -396 22 -14 0 -79 -4 -146 -9z m-694 -682
c81 -40 193 -148 244 -235 76 -132 107 -289 88 -444 -15 -124 -18 -136 -52
-231 -71 -194 -236 -412 -435 -576 -172 -142 -403 -250 -634 -297 -103 -20
-313 -15 -406 11 -207 56 -364 196 -416 367 -62 203 39 461 273 697 120 122
308 278 428 357 321 210 727 403 815 388 17 -3 59 -20 95 -37z m-1949 -1645
c43 -39 44 -91 1 -160 -105 -171 -178 -435 -189 -682 -6 -139 8 -253 42 -349
l14 -41 -44 -36 c-25 -20 -55 -52 -66 -71 l-22 -36 -24 47 c-31 61 -61 190
-69 296 -5 73 5 258 22 370 26 178 165 559 240 657 31 40 54 42 95 5z m3164
-1002 c105 -6 212 -13 240 -15 163 -15 260 -27 267 -31 4 -3 8 -60 8 -127 0
-67 5 -165 10 -217 5 -52 12 -122 15 -155 3 -33 10 -91 15 -130 5 -38 12 -88
14 -110 37 -300 122 -719 232 -1145 130 -505 146 -569 164 -675 27 -156 35
-350 21 -460 -13 -96 -68 -279 -108 -360 -117 -234 -358 -457 -610 -564 -101
-43 -265 -89 -385 -107 -136 -21 -411 -14 -548 15 -276 56 -492 171 -671 358
-181 189 -265 355 -309 611 -23 129 -26 334 -9 459 12 87 63 303 139 588 114
423 226 942 269 1240 43 297 51 376 61 573 5 112 12 207 14 211 3 4 27 8 53
10 26 1 62 4 78 6 237 29 731 41 1040 25z m-1639 -236 c-4 -69 -9 -135 -11
-147 -2 -12 -6 -58 -10 -102 -10 -122 -59 -433 -99 -625 -9 -41 -16 -78 -16
-81 0 -6 -23 -4 -170 17 -379 55 -715 154 -972 285 -131 68 -168 104 -168 165
0 60 23 91 110 149 94 62 348 184 500 238 239 86 715 215 834 226 5 1 6 -53 2
-125z m2788 80 c359 -80 682 -186 921 -304 289 -141 369 -214 332 -303 -19
-44 -63 -77 -179 -134 -236 -116 -535 -208 -833 -257 -91 -15 -224 -36 -253
-39 -36 -4 -40 3 -62 133 -6 36 -17 99 -25 140 -8 41 -17 95 -20 120 -3 25
-12 94 -21 154 -20 149 -44 408 -44 473 0 34 4 53 12 53 6 0 84 -16 172 -36z"/>
</g>
</svg>
